<svg width="24" height="24" viewBox="0 0 24 24" fill="none" xmlns="http://www.w3.org/2000/svg">
<path d="M5.07205 13C5.7075 13.4101 6.15348 13.7435 6.41 14C7.25368 14.8437 8.35272 15.9413 9.70711 17.2929C10.0976 17.6834 10.0976 18.3166 9.70711 18.7071C9.31658 19.0976 8.68342 19.0976 8.29289 18.7071L2.29289 12.7071C1.90237 12.3166 1.90237 11.6834 2.29289 11.2929L8.29289 5.29289C8.68342 4.90237 9.31658 4.90237 9.70711 5.29289C10.0976 5.68342 10.0976 6.31658 9.70711 6.70711C8.35264 8.05876 7.2536 9.1564 6.41 10C6.15303 10.257 5.70719 10.5903 5.07247 11H21C21.5523 11 22 11.4477 22 12C22 12.5523 21.5523 13 21 13H5.07205Z" fill="#1A1A1A"/>
</svg>
