<svg width="24" height="24" viewBox="0 0 24 24" fill="none" xmlns="http://www.w3.org/2000/svg">
<path fill-rule="evenodd" clip-rule="evenodd" d="M19.7006 5.80769C19.8949 5.60652 20.0024 5.33707 20 5.0574C19.9975 4.77772 19.8853 4.51019 19.6876 4.31242C19.4898 4.11465 19.2223 4.00247 18.9426 4.00004C18.6629 3.99761 18.3935 4.10512 18.1923 4.29943L12.0131 10.4786L5.83391 4.29943C5.63273 4.10512 5.36329 3.99761 5.08361 4.00004C4.80394 4.00247 4.5364 4.11465 4.33863 4.31242C4.14087 4.51019 4.02869 4.77772 4.02625 5.0574C4.02382 5.33707 4.13134 5.60652 4.32564 5.80769L10.5048 11.9869L4.32564 18.1661C4.22376 18.2645 4.1425 18.3822 4.0866 18.5123C4.0307 18.6425 4.00127 18.7824 4.00004 18.9241C3.99881 19.0657 4.0258 19.2062 4.07943 19.3372C4.13306 19.4683 4.21227 19.5874 4.31242 19.6876C4.41257 19.7877 4.53167 19.8669 4.66276 19.9206C4.79385 19.9742 4.9343 20.0012 5.07594 20C5.21757 19.9987 5.35753 19.9693 5.48767 19.9134C5.61781 19.8575 5.73551 19.7762 5.83391 19.6744L12.0131 13.4952L18.1923 19.6744C18.3935 19.8687 18.6629 19.9762 18.9426 19.9737C19.2223 19.9713 19.4898 19.8591 19.6876 19.6614C19.8853 19.4636 19.9975 19.1961 20 18.9164C20.0024 18.6367 19.8949 18.3673 19.7006 18.1661L13.5214 11.9869L19.7006 5.80769Z" fill="#09141F"/>
</svg>
